<?xml version="1.0" encoding="UTF-8" standalone="no"?>
<!-- Created with Inkscape (http://www.inkscape.org/) -->

<svg
   width="24"
   height="24"
   viewBox="0 0 6.3500003 6.3499998"
   version="1.1"
   id="svg1"
   xml:space="preserve"
   xmlns="http://www.w3.org/2000/svg"
   xmlns:svg="http://www.w3.org/2000/svg"><defs
     id="defs1" /><path
     id="path10"
     style="fill:currentColor;fill-opacity:1;stroke:none;stroke-width:0.0314083;stroke-opacity:0.8"
     d="M 2.4970052 1.3404867 C 2.7537091 1.4399837 2.9978149 1.5505854 3.0142863 1.8582845 L 3.0142863 3.3858399 L 3.5470703 3.3951416 C 4.228289 3.4068866 4.1942445 4.3229498 3.5563721 4.3258342 L 2.8794108 4.3289348 C 2.4980608 4.2648673 2.423329 3.9702762 2.39882 3.670577 L 2.39882 1.839681 C 2.328304 1.5880542 2.2025416 1.3693315 1.7528646 1.3435873 L 1.7528646 3.8514445 L 1.7590658 4.0106079 C 1.7986318 4.4271517 2.2392927 4.9138627 2.6814901 4.9795411 C 3.1236868 5.0452201 3.6850464 4.9810913 3.6850464 4.9810913 C 4.5256882 4.8761609 5.2221005 3.2365917 3.696932 2.7765747 C 4.1659337 2.5961625 4.326571 1.3674529 3.3326131 1.352889 L 2.4970052 1.3404867 z " /></svg>
