<?xml version="1.0" encoding="UTF-8" standalone="no"?> <!-- Created with Inkscape (http://www.inkscape.org/) --> <svg width="76.199997" height="92.900002" viewBox="0 0 20.161249 24.579792" version="1.1" id="svg1" xmlns="http://www.w3.org/2000/svg" xmlns:svg="http://www.w3.org/2000/svg"> <defs id="defs1" /> <g id="layer1"> <rect style="fill:none;stroke:#333333;stroke-width:0.02645833;stroke-dasharray:none" id="rect3" width="2.2037325" height="1.1189623" x="3.2009945" y="1.6356822" ry="0.55948114" /> <path style="fill:none;stroke:#333333;stroke-width:0.02645833;stroke-dasharray:none" id="path3" d="M 2.3776017,2.183108 A 0.57075346,0.57075548 0 0 1 1.8196589,2.765778 0.57075346,0.57075548 0 0 1 1.2363774,2.2084747 0.57075346,0.57075548 0 0 1 1.7930366,1.6245782 0.57075346,0.57075548 0 0 1 2.3775431,2.1805966" /> <rect style="fill:none;stroke:#333333;stroke-width:0.02645833;stroke-linejoin:round;stroke-dasharray:none" id="rect4" width="17.55212" height="6.5341287" x="1.3045644" y="7.9705729" ry="0.48027188" /> <rect style="fill:none;stroke:#333333;stroke-width:0.02645833;stroke-dasharray:none" id="rect5" width="5.9475956" height="2.2777605" x="1.2475123" y="15.11586" ry="0.24359384" /> <rect style="fill:none;stroke:#333333;stroke-width:0.02645833;stroke-dasharray:none" id="rect6" width="5.9177556" height="3.5926814" x="12.938929" y="15.130781" ry="0.38421732" /> <rect style="fill:none;stroke:#333333;stroke-width:0.02645833;stroke-dasharray:none" id="rect7" width="9.3935223" height="2.2316985" x="1.2705433" y="20.037664" ry="0.23866779" /> <rect style="fill:none;stroke:#333333;stroke-width:0.02645833;stroke-linejoin:round;stroke-dasharray:none" id="rect8" width="5.201746" height="1.1476928" x="1.2362199" y="5.785562" ry="0.4386135" /> <rect style="fill:none;stroke:#333333;stroke-width:0.02645833;stroke-linejoin:round;stroke-dasharray:none" id="rect9" width="5.201746" height="1.1476928" x="13.654939" y="5.785562" ry="0.4386135" /> <rect style="fill:none;stroke:#333333;stroke-width:0.02645833;stroke-linejoin:round;stroke-dasharray:none" id="rect2" width="2.0975633" height="0.56340146" x="1.1921754" y="4.2972307" ry="0.21531501" /> <rect style="fill:#000000;stroke:#333333;stroke-width:0.0747872;stroke-dasharray:none" id="rect10" width="5.9752603" height="1.1371213" x="12.910176" y="17.564154" ry="0.41574004" /> <rect style="fill:none;stroke:#333333;stroke-width:0.02645833;stroke-dasharray:none" id="rect11" width="5.6192675" height="2.2610013" x="13.237417" y="20.023012" ry="0.24180156" /> </g> </svg>
